<svg width="112" height="100" viewBox="0 0 112 100" fill="none" xmlns="http://www.w3.org/2000/svg">
<path d="M1.09961 35.6L2.09961 93.1L98.6996 92.9L100.9 67.5V35.6L55.3996 64.2L45.8996 63.8L1.09961 35.6Z" fill="#E5EFF9"/>
<path d="M100.9 35.6L57.4996 3.19999C53.5996 0.299994 48.3996 0.299994 44.4996 3.19999L1.09961 35.6L50.9996 67L100.9 35.6Z" fill="#9BC2E8"/>
<path d="M100.9 35.6L57.4996 3.19999C53.5996 0.299994 48.3996 0.299994 44.4996 3.19999L1.09961 35.6M1.09961 35.6L50.9996 67L100.9 35.6H1.09961Z" stroke="#0467C6" stroke-width="2" stroke-linecap="round" stroke-linejoin="round"/>
<path d="M89.8996 42.5V11.3H12.0996V42.5L50.9996 67L89.8996 42.5Z" fill="white" stroke="#0467C6" stroke-width="2" stroke-linecap="round" stroke-linejoin="round"/>
<path d="M100.9 92.9L57.7996 65.8C53.6996 63.2 48.3996 63.2 44.2996 65.8L1.09961 92.9" fill="#E5EFF9"/>
<path d="M100.9 92.9L57.7996 65.8C53.6996 63.2 48.3996 63.2 44.2996 65.8L1.09961 92.9" stroke="#0467C6" stroke-width="2" stroke-linecap="round" stroke-linejoin="round"/>
<path d="M50 24.3H78.9C79.2 24.3 79.4 24.5 79.4 24.8V27.1C79.4 27.4 79.2 27.6 78.9 27.6H50C49.7 27.6 49.5 27.4 49.5 27.1V24.8C49.5 24.5 49.7 24.3 50 24.3ZM50 31.1H64.5C64.8 31.1 65 31.3 65 31.6V34C65 34.3 64.8 34.5 64.5 34.5H50C49.7 34.5 49.5 34.3 49.5 34V31.7C49.5 31.4 49.7 31.1 50 31.1ZM50 38H68.8C69.1 38 69.3 38.2 69.3 38.5V40.8C69.3 41.1 69.1 41.3 68.8 41.3H50C49.7 41.3 49.5 41.1 49.5 40.8V38.5C49.5 38.3 49.7 38 50 38Z" fill="#E5EFF9"/>
<path d="M42.5002 27.2C41.8002 25.7 40.6002 24.5 39.1002 23.8C37.4002 23 35.5002 22.6 33.6002 22.6C31.7002 22.6 29.8002 23 28.0002 23.9C26.4002 24.7 25.0002 26 24.1002 27.6C23.1002 29.2 22.6002 31.1 22.5002 33C22.3002 34.9 22.7002 36.8 23.5002 38.5C24.3002 40 25.5002 41.2 27.0002 41.9C28.5002 42.6 30.2002 43 31.9002 43C33.0002 43 34.1002 42.9 35.2002 42.8C35.7002 42.7 36.2002 42.6 36.7002 42.4C37.0002 42.3 37.2002 41.9 37.1002 41.5L36.8002 40.6C36.2002 40.9 35.5002 41.1 34.8002 41.2C34.1002 41.4 33.3002 41.4 32.6002 41.4C31.1002 41.4 29.5002 41.1 28.1002 40.4C26.9002 39.8 25.9002 38.7 25.4002 37.5C24.8002 36.1 24.6002 34.6 24.7002 33C24.7002 31.4 25.2002 29.8 25.9002 28.4C26.6002 27.1 27.6002 26 28.9002 25.3C30.3002 24.6 31.8002 24.2 33.4002 24.2C36.1002 24.2 38.1002 24.9 39.5002 26.3C40.8002 27.7 41.5002 29.8 41.3002 32.4C41.3002 33.5 41.0002 34.6 40.4002 35.5C39.9002 36.2 39.1002 36.7 38.3002 36.7C37.2002 36.7 36.7002 36 36.8002 34.5L37.3002 30C37.4002 28.8 36.7002 27.7 35.5002 27.4C34.9002 27.2 34.2002 27.2 33.6002 27.2C32.7002 27.2 31.8002 27.5 31.0002 28C30.2002 28.6 29.5002 29.3 29.0002 30.2C28.5002 31.2 28.1002 32.3 28.0002 33.4C28.0002 34.7 28.2002 36 28.9002 37C29.6002 37.9 30.6002 38.4 31.7002 38.3C32.3002 38.3 32.9002 38.2 33.5002 37.9C34.1002 37.6 34.6002 37.2 35.0002 36.6C35.6002 37.8 36.8002 38.4 38.1002 38.3C39.5002 38.4 41.0002 37.8 41.9002 36.7C42.9002 35.5 43.5002 34 43.5002 32.4C43.6002 30.7 43.2002 28.9 42.5002 27.2ZM34.7002 34.6C34.5002 35.1 34.1002 35.6 33.7002 36C33.3002 36.3 32.9002 36.5 32.4002 36.5C31.8002 36.5 31.2002 36.2 30.9002 35.7C30.6002 35 30.5002 34.2 30.6002 33.5C30.7002 32.3 31.1002 31.2 31.7002 30.2C32.2002 29.5 33.1002 29 34.0002 29.1C34.4002 29.1 34.8002 29.2 35.2002 29.3L34.7002 34.6Z" fill="#9BC2E8"/>
<path d="M1.09961 35.6V92.9H100.9V35.6" stroke="#0467C6" stroke-width="2" stroke-linecap="round" stroke-linejoin="round"/>
<path d="M93.5 99C102.613 99 110 91.6127 110 82.5C110 73.3873 102.613 66 93.5 66C84.3873 66 77 73.3873 77 82.5C77 91.6127 84.3873 99 93.5 99Z" fill="white" stroke="#0467C6" stroke-width="2" stroke-linecap="round" stroke-linejoin="round"/>
<path d="M84.4004 82.1L91.2004 88.2L101.9 76.1" stroke="#0467C6" stroke-width="2" stroke-linecap="round" stroke-linejoin="round"/>
</svg>
